<?xml version="1.0" encoding="UTF-8"?>
<svg width="394px" height="88px" viewBox="0 0 394 88" version="1.1" xmlns="http://www.w3.org/2000/svg" xmlns:xlink="http://www.w3.org/1999/xlink">
    <!-- Generator: Sketch 54.1 (76490) - https://sketchapp.com -->
    <title>Combined Shape</title>
    <desc>Created with Sketch.</desc>
    <g id="Page-1" stroke="none" stroke-width="1" fill="none" fill-rule="evenodd">
        <path d="M108.968645,52.835711 C109.109271,55.1325975 109.46083,57.1013278 110.023333,58.741961 C110.585835,60.3825942 111.265516,61.7185183 112.062395,62.7497735 C112.859274,63.7810287 113.726453,64.5427398 114.663958,65.0349298 C115.601462,65.5271197 116.492078,65.773211 117.335833,65.773211 C118.226462,65.773211 119.128797,65.4802452 120.042864,64.8943048 C120.956931,64.3083643 121.788954,63.4177482 122.538958,62.2224298 C123.288961,61.0271113 123.874893,59.5505635 124.29677,57.7927423 C124.718647,56.034921 124.882708,53.960723 124.788958,51.570086 C124.788958,49.36695 124.742083,46.7419762 124.648333,43.695086 C124.554582,41.0700729 124.425677,37.8357302 124.261614,33.991961 C124.097551,30.1481918 123.851459,25.6247995 123.523333,20.4216485 C123.476457,20.0935219 123.722549,19.7302442 124.261614,19.3318048 C124.800679,18.9333653 125.456922,18.5935249 126.230364,18.3122735 C127.003805,18.0310221 127.788954,17.843524 128.585833,17.7497735 C129.382712,17.656023 130.038955,17.7497721 130.554583,18.0310235 C130.929584,22.2029194 131.199113,26.2106918 131.363176,30.054461 C131.52724,33.8982302 131.632707,37.2966337 131.679583,40.2497735 C131.726458,43.7185408 131.726458,46.9763208 131.679583,50.023211 C131.820208,53.7263545 131.468649,56.9138226 130.624895,59.585711 C129.781141,62.2575994 128.632715,64.4489837 127.179583,66.1599298 C125.72645,67.8708758 124.085842,69.1482068 122.257708,69.991961 C120.429573,70.8357152 118.601467,71.257586 116.773333,71.257586 C114.054569,71.3044612 111.73428,70.7654041 109.812395,69.6403985 C107.89051,68.5153929 106.331932,66.7810352 105.136614,64.4372735 C103.941295,62.0935118 103.062398,59.1638536 102.499895,55.648211 C101.937392,52.1325684 101.656145,48.0076097 101.656145,43.273211 C101.60927,40.9763245 101.679582,38.5857234 101.867083,36.101336 C102.007708,33.9919505 102.218644,31.6599425 102.499895,29.1052423 C102.781146,26.550542 103.203017,24.0544732 103.76552,21.616961 C103.718645,20.5388306 104.081922,19.7419636 104.855364,19.226336 C105.628805,18.7107084 106.484265,18.3357122 107.42177,18.101336 C108.4999,17.8669598 109.742076,17.7732108 111.148333,17.820086 C110.445204,23.4919894 109.941303,28.5075642 109.636614,32.866961 C109.331925,37.2263578 109.132708,40.8825712 109.038958,43.835711 C108.898332,47.3044783 108.874895,50.3044483 108.968645,52.835711 Z M148.624895,51.6403985 C149.65615,52.0154004 150.640515,52.3669594 151.57802,52.695086 C152.515525,53.0232126 153.335829,53.4216462 154.038958,53.8903985 C154.742086,54.3591508 155.30458,54.9099266 155.726458,55.5427423 C156.148335,56.1755579 156.35927,56.9607063 156.35927,57.898211 C156.35927,59.0232166 156.113179,60.0778936 155.620989,61.0622735 C155.128799,62.0466534 154.413962,62.9138323 153.476458,63.663836 C152.538953,64.4138398 151.402246,65.01149 150.066301,65.4568048 C148.730357,65.9021195 147.242091,66.1247735 145.601458,66.1247735 C143.773323,66.1247735 142.296776,65.948994 141.17177,65.5974298 C140.046764,65.2458655 139.179586,64.8357133 138.570208,64.366961 C137.96083,63.8982087 137.562396,63.4294633 137.374895,62.960711 C137.187394,62.4919587 137.093645,62.1169624 137.093645,61.835711 C137.093645,61.2732082 137.210831,60.6521207 137.445208,59.9724298 C137.679584,59.2927389 138.124892,58.554465 138.781145,57.757586 C139.062396,57.4294594 139.367081,57.1247749 139.695208,56.8435235 C140.351461,56.2810207 141.007704,55.9294617 141.663958,55.788836 C141.570207,56.8669664 141.699112,57.7458639 142.050676,58.4255548 C142.402241,59.1052457 142.870986,59.6325841 143.456926,60.007586 C144.042867,60.3825879 144.69911,60.6403978 145.425676,60.7810235 C146.152242,60.9216492 146.843642,60.991961 147.499895,60.991961 C148.156148,60.991961 148.82411,60.8982119 149.503801,60.710711 C150.183492,60.5232101 150.80458,60.2771188 151.367083,59.9724298 C151.929585,59.6677407 152.386612,59.3161817 152.738176,58.9177423 C153.089741,58.5193028 153.26552,58.0857133 153.26552,57.616961 C153.26552,57.1013334 153.054585,56.6794626 152.632708,56.351336 C152.21083,56.0232094 151.683492,55.7536808 151.050676,55.5427423 C150.417861,55.3318037 149.73818,55.1677428 149.011614,55.0505548 C148.285048,54.9333667 147.593648,54.8044617 146.937395,54.663836 C146.281142,54.5232103 145.402244,54.3239935 144.300676,54.0661798 C143.199108,53.808366 142.120994,53.3982138 141.066301,52.835711 C140.011609,52.2732082 139.097555,51.5232157 138.324114,50.585711 C137.550672,49.6482063 137.163958,48.4060312 137.163958,46.8591485 C137.163958,45.0778896 137.620984,43.5193114 138.535051,42.1833673 C139.449118,40.8474231 140.574107,39.7224343 141.910051,38.8083673 C143.245996,37.8943002 144.66395,37.2029008 146.163958,36.7341485 C147.663965,36.2653962 148.999889,36.0310235 150.17177,36.0310235 C150.781148,36.0310235 151.437392,36.1130539 152.14052,36.2771173 C152.843649,36.4411806 153.499892,36.7224278 154.10927,37.1208673 C154.718648,37.5193067 155.222549,38.0466452 155.620989,38.7028985 C156.019428,39.3591518 156.218645,40.2028933 156.218645,41.2341485 C156.218645,42.2654037 156.136615,43.0974266 155.972551,43.7302423 C155.808488,44.3630579 155.574115,44.8552405 155.269426,45.2068048 C154.964737,45.558369 154.60146,45.781023 154.179583,45.8747735 C153.757705,45.968524 153.265523,46.0153985 152.70302,46.0153985 C152.328018,46.0153985 151.976459,45.968524 151.648333,45.8747735 C151.367081,45.781023 151.062397,45.687274 150.73427,45.5935235 C150.406143,45.499773 150.101459,45.3357122 149.820208,45.101336 C150.28896,44.5388332 150.652238,43.9997761 150.910051,43.4841485 C151.167865,42.9685209 151.29677,42.3357148 151.29677,41.585711 C151.29677,40.9294577 151.120991,40.3435261 150.769426,39.8278985 C150.417862,39.3122709 149.843649,39.054461 149.04677,39.054461 C148.203016,39.054461 147.39443,39.2185219 146.620989,39.5466485 C145.847547,39.8747751 145.167867,40.3200832 144.581926,40.882586 C143.995986,41.4450888 143.527241,42.0896136 143.175676,42.8161798 C142.824112,43.5427459 142.648333,44.3278943 142.648333,45.1716485 C142.648333,46.4372798 143.128797,47.6325804 144.089739,48.757586 C145.050681,49.8825916 146.562385,50.8435195 148.624895,51.6403985 Z M169.85927,65.773211 C166.578004,65.773211 164.046779,64.6716595 162.26552,62.4685235 C160.484261,60.2653875 159.593645,57.3826038 159.593645,53.820086 C159.593645,51.3356986 159.956923,49.0036907 160.683489,46.8239923 C161.410055,44.6442939 162.382701,42.757594 163.601458,41.163836 C164.820214,39.570078 166.238168,38.3161843 167.855364,37.4021173 C169.472559,36.4880502 171.171761,36.0310235 172.95302,36.0310235 C174.687404,36.0310235 176.163951,36.652111 177.382708,37.8943048 C178.601464,39.1364985 179.210833,40.906012 179.210833,43.2028985 C179.210833,44.702906 178.882711,46.1911724 178.226458,47.6677423 C177.570204,49.1443121 176.714744,50.456799 175.660051,51.6052423 C174.605359,52.7536855 173.445214,53.6794575 172.179583,54.382586 C170.913951,55.0857145 169.695213,55.4372735 168.523333,55.4372735 C167.773329,55.4372735 167.140523,55.3435244 166.624895,55.1560235 C166.109268,54.9685226 165.640522,54.6872754 165.218645,54.3122735 C165.359271,56.9841619 165.945202,58.8474245 166.976458,59.9021173 C168.007713,60.95681 169.343637,61.4841485 170.98427,61.4841485 C172.109276,61.4841485 173.10536,61.2497758 173.972551,60.7810235 C174.839743,60.3122712 175.578017,59.7732141 176.187395,59.163836 C176.796773,58.554458 177.288956,57.9333704 177.663958,57.3005548 C178.038959,56.6677391 178.296769,56.1872751 178.437395,55.8591485 C178.578021,55.5778971 178.824112,55.4372735 179.175676,55.4372735 C179.527241,55.4372735 179.70302,55.7185207 179.70302,56.2810235 C179.70302,56.7966511 179.527241,57.5817995 179.175676,58.6364923 C178.824112,59.691185 178.249899,60.745862 177.45302,61.8005548 C176.656141,62.8552475 175.63662,63.7810195 174.394426,64.5778985 C173.152233,65.3747775 171.640529,65.773211 169.85927,65.773211 Z M173.093645,39.054461 C172.812394,39.054461 172.285055,39.3474268 171.511614,39.9333673 C170.738172,40.5193077 169.917868,41.3747679 169.050676,42.4997735 C168.183485,43.6247791 167.386617,44.9724219 166.660051,46.5427423 C165.933485,48.1130626 165.476459,49.8825762 165.288958,51.851336 C168.101472,51.1950827 170.328012,50.163843 171.968645,48.757586 C173.609278,47.351329 174.429583,45.2888496 174.429583,42.570086 C174.429583,41.2107042 174.265522,40.2849322 173.937395,39.7927423 C173.609268,39.3005523 173.328021,39.054461 173.093645,39.054461 Z M238.343645,70.976336 C236.937388,70.9294608 235.97646,70.4958714 235.460833,69.6755548 C234.945205,68.8552382 234.640521,67.7185308 234.54677,66.2653985 C234.45302,64.8122662 234.499894,63.0896272 234.687395,61.0974298 C234.874896,59.1052323 234.968645,56.9372852 234.968645,54.5935235 C235.01552,49.9528753 235.1913,45.7224489 235.495989,41.9021173 C235.800678,38.0817857 235.882708,34.3669791 235.742083,30.757586 C235.742083,30.4763346 235.742083,30.2185247 235.742083,29.9841485 C235.742083,29.7497723 235.718645,29.5153997 235.67177,29.2810235 C235.437394,30.0779025 235.167865,30.9802372 234.863176,31.9880548 C234.558487,32.9958723 234.19521,34.1091424 233.773333,35.3278985 C232.929578,37.9529116 232.097555,40.6481972 231.277239,43.413836 C230.456922,46.1794748 229.660055,48.8630417 228.886614,51.4646173 C228.113172,54.0661928 227.386617,56.4802311 226.706926,58.7068048 C226.027235,60.9333784 225.429585,62.796641 224.913958,64.2966485 C224.39833,65.796656 223.894429,66.9099261 223.402239,67.6364923 C222.910049,68.3630584 222.417866,68.8669596 221.925676,69.148211 C221.433486,69.4294624 220.941304,69.5466487 220.449114,69.4997735 C219.956924,69.4528983 219.47646,69.4060237 219.007708,69.3591485 C218.820207,67.7653905 218.468648,65.8904093 217.95302,63.7341485 C217.437393,61.5778877 216.898335,59.5154083 216.335833,57.5466485 C215.679579,55.249762 214.953024,52.9060355 214.156145,50.5153985 C213.078015,46.3903779 211.953026,42.6169781 210.781145,39.195086 C209.609264,35.7731939 208.695211,32.960722 208.038958,30.757586 C207.757706,33.148223 207.546771,35.890383 207.406145,38.9841485 C207.265519,42.077914 207.17177,45.171633 207.124895,48.2653985 C207.07802,51.359164 207.101457,54.2771035 207.195208,57.0193048 C207.288958,59.761506 207.429582,61.9763276 207.617083,63.663836 C207.663958,64.3669645 207.757707,65.0700825 207.898333,65.773211 C207.992083,66.3825891 208.120988,67.0036766 208.285051,67.6364923 C208.449115,68.2693079 208.648331,68.8435209 208.882708,69.3591485 C208.648331,69.5466494 208.367084,69.7107103 208.038958,69.851336 C207.710831,69.9919617 207.359272,70.109148 206.98427,70.2028985 C206.562393,70.3435242 206.117085,70.4607105 205.648333,70.554461 C203.820198,70.9294629 202.495993,70.8825883 201.675676,70.413836 C200.85536,69.9450837 200.351459,69.007593 200.163958,67.601336 C200.070207,66.8982075 199.999895,65.5857206 199.95302,63.663836 C199.906145,61.7419514 199.894426,59.5271298 199.917864,57.0193048 C199.941301,54.5114797 199.999895,51.8747873 200.093645,49.1091485 C200.187396,46.3435097 200.328019,43.7654105 200.51552,41.3747735 C200.703021,39.4528889 200.890519,37.3669723 201.07802,35.116961 C201.265521,33.1482012 201.453019,30.8747864 201.64052,28.2966485 C201.828021,25.7185106 202.038956,22.929476 202.273333,19.929461 C202.413958,19.6482096 202.648331,19.4021183 202.976458,19.1911798 C203.304584,18.9802412 203.656143,18.8044617 204.031145,18.663836 C204.453022,18.4763351 204.921768,18.3357115 205.437395,18.241961 C206.234274,18.1013353 206.937392,17.984149 207.54677,17.8903985 C208.062398,17.796648 208.542862,17.7263362 208.988176,17.679461 C209.433491,17.6325858 209.609271,17.6325858 209.51552,17.679461 C210.124898,18.9450923 210.593643,19.9880507 210.92177,20.8083673 C211.249897,21.6286839 211.589737,22.6013304 211.941301,23.726336 C212.292866,24.8513416 212.738174,26.3278894 213.277239,28.1560235 C213.816304,29.9841576 214.601452,32.5388196 215.632708,35.820086 C217.038965,40.3669837 218.245984,44.3278816 219.253801,47.7028985 C220.261619,51.0779154 221.02333,53.6560146 221.538958,55.4372735 C221.867084,54.8278955 222.195206,54.1599334 222.523333,53.4333673 C222.851459,52.7068011 223.1913,51.8279037 223.542864,50.7966485 C223.894428,49.7653933 224.269424,48.5583742 224.667864,47.1755548 C225.066303,45.7927353 225.52333,44.1404081 226.038958,42.2185235 C226.695211,40.109138 227.374892,37.8357232 228.07802,35.398211 C228.640523,33.3357007 229.26161,30.9802555 229.941301,28.3318048 C230.620992,25.683354 231.265517,22.9294753 231.874895,20.070086 C233.374903,19.460708 234.59364,19.0036813 235.531145,18.6989923 C236.46865,18.3943032 237.195205,18.1482119 237.710833,17.960711 C238.320211,17.7732101 238.765519,17.6560237 239.04677,17.6091485 C239.328021,17.6560237 239.609269,17.7966473 239.89052,18.0310235 C240.124896,18.2653997 240.406143,18.5935214 240.73427,19.0153985 C241.062397,19.4372756 241.413956,20.0700818 241.788958,20.913836 C241.788958,21.5700893 241.788958,22.6247662 241.788958,24.0778985 C241.788958,25.5310308 241.788958,27.2067953 241.788958,29.1052423 C241.788958,31.0036892 241.76552,33.05445 241.718645,35.257586 C241.67177,37.460722 241.636614,39.6755436 241.613176,41.9021173 C241.589739,44.1286909 241.566301,46.296638 241.542864,48.4060235 C241.519426,50.5154091 241.48427,52.3903903 241.437395,54.0310235 C241.343645,56.5154109 241.331926,58.6247648 241.402239,60.3591485 C241.472552,62.0935322 241.613175,63.534924 241.824114,64.6833673 C242.035052,65.8318105 242.3163,66.7575825 242.667864,67.460711 C243.019428,68.1638395 243.453018,68.7263339 243.968645,69.148211 C243.828019,69.2419615 243.558491,69.3943037 243.160051,69.6052423 C242.761612,69.8161808 242.281148,70.0271162 241.718645,70.2380548 C241.156142,70.4489933 240.570211,70.6247728 239.960833,70.7653985 C239.351455,70.9060242 238.812397,70.976336 238.343645,70.976336 Z M269.14052,37.9997735 C269.234271,42.1247941 269.304582,45.734133 269.351458,48.8278985 C269.398333,51.921664 269.445207,54.5232005 269.492083,56.632586 C269.538958,59.1169734 269.562395,61.2497646 269.562395,63.0310235 C269.60927,65.2341595 269.433491,67.5192929 269.035051,69.8864923 C268.636612,72.2536916 267.992087,74.4216387 267.101458,76.3903985 C266.210828,78.3591583 265.038965,79.9763297 263.585833,81.241961 C262.1327,82.5075923 260.374905,83.1403985 258.312395,83.1403985 C255.828008,83.1403985 253.929589,82.6364973 252.617083,81.6286798 C251.304576,80.6208622 250.343648,79.4841548 249.73427,78.2185235 C249.124892,76.9528922 248.773333,75.7693103 248.679583,74.6677423 C248.585832,73.5661742 248.538958,72.9216494 248.538958,72.7341485 C248.538958,72.3591466 248.77333,71.9372758 249.242083,71.4685235 C249.710835,70.9997712 250.413953,70.5779004 251.351458,70.2028985 C251.726459,70.0622728 252.101456,69.9450865 252.476458,69.851336 C252.804584,69.7575855 253.132706,69.6872737 253.460833,69.6403985 C253.788959,69.5935233 254.093644,69.6169605 254.374895,69.710711 C253.906143,70.5544652 253.636614,71.5153931 253.566301,72.5935235 C253.495988,73.6716539 253.636612,74.6911749 253.988176,75.6521173 C254.339741,76.6130596 254.867079,77.4216452 255.570208,78.0778985 C256.273336,78.7341518 257.163952,79.0622735 258.242083,79.0622735 C259.74209,79.0622735 260.925672,78.6286841 261.792864,77.7614923 C262.660056,76.8943004 263.316299,75.8279048 263.761614,74.5622735 C264.206929,73.2966422 264.488176,71.960718 264.605364,70.554461 C264.722552,69.148204 264.781145,67.9060289 264.781145,66.8278985 C264.781145,65.9841443 264.769426,64.8943114 264.745989,63.5583673 C264.722551,62.2224231 264.640521,60.7341567 264.499895,59.0935235 C263.937392,60.0310282 263.281149,60.9333629 262.531145,61.8005548 C261.781141,62.6677466 260.984274,63.4294577 260.14052,64.085711 C259.296766,64.7419643 258.441306,65.2693028 257.574114,65.6677423 C256.706922,66.0661817 255.851462,66.2653985 255.007708,66.2653985 C253.554575,66.2653985 252.382712,65.8083718 251.492083,64.8943048 C250.601453,63.9802377 249.921772,62.8318117 249.45302,61.4489923 C248.984268,60.0661728 248.667865,58.5661878 248.503801,56.9489923 C248.339738,55.3317967 248.257708,53.8435303 248.257708,52.4841485 C248.257708,51.4528933 248.304582,50.1989996 248.398333,48.7224298 C248.492083,47.2458599 248.609269,45.8279053 248.749895,44.4685235 C248.890521,43.1091417 249.0663,41.9255598 249.277239,40.9177423 C249.488177,39.9099247 249.710831,39.3357117 249.945208,39.195086 C251.304589,38.398207 252.640514,37.952899 253.95302,37.8591485 C255.265527,37.765398 256.249892,37.9294589 256.906145,38.351336 C256.343642,38.7732131 255.874897,39.4763311 255.499895,40.460711 C255.124893,41.4450909 254.820209,42.5349238 254.585833,43.7302423 C254.351456,44.9255607 254.187396,46.1677358 254.093645,47.4568048 C253.999895,48.7458737 253.95302,49.9060183 253.95302,50.9372735 C253.95302,51.7810277 253.976457,52.7888301 254.023333,53.960711 C254.070208,55.1325919 254.175676,56.2575806 254.339739,57.335711 C254.503802,58.4138414 254.749893,59.3278948 255.07802,60.0778985 C255.406147,60.8279023 255.828018,61.2028985 256.343645,61.2028985 C257.3749,61.2028985 258.335828,60.8279023 259.226458,60.0778985 C260.117087,59.3278948 260.902235,58.3904041 261.581926,57.2653985 C262.261617,56.1403929 262.788956,54.9333737 263.163958,53.6443048 C263.538959,52.3552358 263.726458,51.1482166 263.726458,50.023211 L263.726458,49.460711 C263.632707,48.2419549 263.538958,47.0818103 263.445208,45.9802423 C263.351457,44.8786742 263.269427,43.8825905 263.199114,42.991961 C263.128801,42.1013316 263.081926,41.3630577 263.058489,40.7771173 C263.035051,40.1911768 263.023333,39.8044619 263.023333,39.616961 C263.023333,39.1482087 263.339736,38.7263379 263.972551,38.351336 C264.605367,37.9763341 265.308485,37.7068056 266.081926,37.5427423 C266.855368,37.3786789 267.558486,37.3200858 268.191301,37.366961 C268.824117,37.4138362 269.14052,37.6247716 269.14052,37.9997735 Z M287.281145,26.398211 C287.046769,26.1169596 286.859271,25.7888379 286.718645,25.413836 C286.578019,25.0388341 286.460833,24.6638379 286.367083,24.288836 C286.273332,23.8669589 286.20302,23.4450881 286.156145,23.023211 L286.156145,21.8278985 C286.156145,21.4997719 286.179582,21.1833688 286.226458,20.8786798 C286.273333,20.5739907 286.390519,20.3278994 286.57802,20.1403985 C288.031152,19.7653966 289.601449,19.4724308 291.288958,19.2614923 C292.976466,19.0505537 294.5702,18.8513369 296.070208,18.663836 C297.804591,18.4763351 299.515512,18.3122742 301.20302,18.1716485 C301.671772,17.8435219 302.093643,17.6091492 302.468645,17.4685235 C302.843647,17.3278978 303.148331,17.3278978 303.382708,17.4685235 C303.476458,17.4685235 303.570207,17.6560216 303.663958,18.0310235 L303.945208,18.0310235 C305.632716,17.9841483 307.249887,17.9372737 308.79677,17.8903985 C310.109277,17.8435233 311.410045,17.8318046 312.699114,17.8552423 C313.988183,17.8786799 314.984267,17.9138358 315.687395,17.960711 C316.062397,18.0075862 316.343644,18.2888334 316.531145,18.804461 C316.718646,19.3200886 316.777239,19.976332 316.706926,20.773211 C316.636613,21.57009 316.413959,22.4372688 316.038958,23.3747735 C315.663956,24.3122782 315.054587,25.2028943 314.210833,26.0466485 C313.132702,25.7653971 312.007713,25.5661803 310.835833,25.4489923 C309.663952,25.3318042 308.609275,25.2263365 307.67177,25.132586 C306.499889,25.0388355 305.398338,24.991961 304.367083,24.991961 L304.01552,24.991961 C304.062395,26.8669704 304.085833,28.9411684 304.085833,31.2146173 C304.085833,33.4880661 304.074114,35.7849182 304.050676,38.1052423 C304.027239,40.4255664 303.992083,42.6989811 303.945208,44.9255548 C303.898332,47.1521284 303.851458,49.1325773 303.804583,50.866961 C303.804583,53.6325998 303.804583,56.0114823 303.804583,58.0036798 C303.804583,59.9958772 303.874894,61.6833603 304.01552,63.0661798 C304.156146,64.4489992 304.367081,65.5622693 304.648333,66.4060235 C304.929584,67.2497777 305.328018,67.9294584 305.843645,68.445086 C305.79677,68.4919612 305.667865,68.6443035 305.456926,68.9021173 C305.245988,69.159931 304.964741,69.4294596 304.613176,69.710711 C304.261612,69.9919624 303.839741,70.2497723 303.347551,70.4841485 C302.855361,70.7185247 302.304586,70.8122737 301.695208,70.7653985 C300.148325,70.7185233 298.999899,70.2029034 298.249895,69.2185235 C297.499891,68.2341436 296.984271,66.8513449 296.70302,65.070086 C296.421769,63.2888271 296.316301,61.1325987 296.386614,58.601336 C296.456927,56.0700733 296.585832,53.1872897 296.773333,49.9528985 C296.913958,47.7497625 297.042863,45.4763477 297.160051,43.132586 C297.277239,40.7888243 297.394426,38.5271282 297.511614,36.3474298 C297.628802,34.1677314 297.73427,32.1286892 297.82802,30.2302423 C297.921771,28.3317953 298.01552,26.679468 298.10927,25.273211 C296.937389,25.3200862 295.742089,25.4138353 294.523333,25.554461 C293.445202,25.6482115 292.273339,25.7653978 291.007708,25.9060235 C289.742076,26.0466492 288.499901,26.2107101 287.281145,26.398211 Z M334.882708,52.9060235 C334.788957,54.7341576 334.472554,56.4216408 333.933489,57.9685235 C333.394424,59.5154062 332.65615,60.863049 331.718645,62.0114923 C330.78114,63.1599355 329.66787,64.0622702 328.378801,64.7185235 C327.089732,65.3747768 325.671778,65.7263358 324.124895,65.773211 C322.765513,65.8200862 321.488182,65.4919645 320.292864,64.788836 C319.097545,64.0857075 318.054587,63.1013423 317.163958,61.835711 C316.273328,60.5700797 315.605366,59.058376 315.160051,57.3005548 C314.714737,55.5427335 314.585832,53.6325963 314.773333,51.570086 C314.913958,49.1794491 315.359266,47.1286883 316.10927,45.4177423 C316.859274,43.7067962 317.656141,42.2888416 318.499895,41.163836 C319.343649,40.0388304 320.128798,39.2068074 320.855364,38.6677423 C321.58193,38.1286771 322.038957,37.812274 322.226458,37.7185235 C322.554584,37.5778978 322.859269,37.5427419 323.14052,37.6130548 C323.421771,37.6833676 323.726456,37.765398 324.054583,37.8591485 C324.148333,37.9060237 324.242082,38.0232101 324.335833,38.210711 C324.523334,38.5388376 324.64052,39.1482066 324.687395,40.038836 C324.921771,39.5232084 325.226456,39.1013376 325.601458,38.773211 C325.976459,38.4450844 326.351456,38.2107117 326.726458,38.070086 C327.19521,37.8825851 327.663955,37.7653987 328.132708,37.7185235 C328.460834,37.6716483 329.035047,37.9294582 329.855364,38.491961 C330.67568,39.0544638 331.472547,39.9450799 332.245989,41.163836 C333.01943,42.3825921 333.687392,43.9646075 334.249895,45.9099298 C334.812398,47.855252 335.023333,50.1872599 334.882708,52.9060235 Z M330.101458,52.0622735 C330.148333,50.9372679 330.113177,49.8005605 329.995989,48.6521173 C329.878801,47.503674 329.691303,46.4489971 329.433489,45.4880548 C329.175675,44.5271124 328.859272,43.7536827 328.48427,43.1677423 C328.109268,42.5818018 327.734272,42.288836 327.35927,42.288836 C326.937393,42.3825865 326.468648,42.5935219 325.95302,42.9216485 C325.531143,43.2028999 325.062398,43.648208 324.54677,44.257586 C324.031143,44.8669641 323.53896,45.7341429 323.070208,46.8591485 C323.023332,46.7185228 322.976458,46.4607129 322.929583,46.085711 C322.882707,45.7575844 322.847551,45.3239949 322.824114,44.7849298 C322.800676,44.2458646 322.835832,43.5075907 322.929583,42.570086 C322.273329,43.366965 321.769428,44.3044556 321.417864,45.382586 C321.0663,46.4607164 320.796771,47.4919561 320.60927,48.476336 C320.421769,49.6482169 320.281146,50.8200801 320.187395,51.991961 C320.14052,53.2575923 320.199113,54.4997674 320.363176,55.7185235 C320.52724,56.9372796 320.808487,58.0153938 321.206926,58.9528985 C321.605366,59.8904032 322.08583,60.6403957 322.648333,61.2028985 C323.210835,61.7654013 323.890516,62.0232112 324.687395,61.976336 C325.484274,61.9294608 326.187392,61.6013391 326.79677,60.991961 C327.406148,60.382583 327.945205,59.6091532 328.413958,58.6716485 C328.88271,57.7341438 329.257706,56.6794669 329.538958,55.507586 C329.820209,54.3357051 330.007707,53.1872791 330.101458,52.0622735 Z M358.085833,52.9060235 C357.992082,54.7341576 357.675679,56.4216408 357.136614,57.9685235 C356.597549,59.5154062 355.859275,60.863049 354.92177,62.0114923 C353.984265,63.1599355 352.870995,64.0622702 351.581926,64.7185235 C350.292857,65.3747768 348.874903,65.7263358 347.32802,65.773211 C345.968638,65.8200862 344.691307,65.4919645 343.495989,64.788836 C342.30067,64.0857075 341.257712,63.1013423 340.367083,61.835711 C339.476453,60.5700797 338.808491,59.058376 338.363176,57.3005548 C337.917862,55.5427335 337.788957,53.6325963 337.976458,51.570086 C338.117083,49.1794491 338.562391,47.1286883 339.312395,45.4177423 C340.062399,43.7067962 340.859266,42.2888416 341.70302,41.163836 C342.546774,40.0388304 343.331923,39.2068074 344.058489,38.6677423 C344.785055,38.1286771 345.242082,37.812274 345.429583,37.7185235 C345.757709,37.5778978 346.062394,37.5427419 346.343645,37.6130548 C346.624896,37.6833676 346.929581,37.765398 347.257708,37.8591485 C347.351458,37.9060237 347.445207,38.0232101 347.538958,38.210711 C347.726459,38.5388376 347.843645,39.1482066 347.89052,40.038836 C348.124896,39.5232084 348.429581,39.1013376 348.804583,38.773211 C349.179584,38.4450844 349.554581,38.2107117 349.929583,38.070086 C350.398335,37.8825851 350.86708,37.7653987 351.335833,37.7185235 C351.663959,37.6716483 352.238172,37.9294582 353.058489,38.491961 C353.878805,39.0544638 354.675672,39.9450799 355.449114,41.163836 C356.222555,42.3825921 356.890517,43.9646075 357.45302,45.9099298 C358.015523,47.855252 358.226458,50.1872599 358.085833,52.9060235 Z M353.304583,52.0622735 C353.351458,50.9372679 353.316302,49.8005605 353.199114,48.6521173 C353.081926,47.503674 352.894428,46.4489971 352.636614,45.4880548 C352.3788,44.5271124 352.062397,43.7536827 351.687395,43.1677423 C351.312393,42.5818018 350.937397,42.288836 350.562395,42.288836 C350.140518,42.3825865 349.671773,42.5935219 349.156145,42.9216485 C348.734268,43.2028999 348.265523,43.648208 347.749895,44.257586 C347.234268,44.8669641 346.742085,45.7341429 346.273333,46.8591485 C346.226457,46.7185228 346.179583,46.4607129 346.132708,46.085711 C346.085832,45.7575844 346.050676,45.3239949 346.027239,44.7849298 C346.003801,44.2458646 346.038957,43.5075907 346.132708,42.570086 C345.476454,43.366965 344.972553,44.3044556 344.620989,45.382586 C344.269425,46.4607164 343.999896,47.4919561 343.812395,48.476336 C343.624894,49.6482169 343.484271,50.8200801 343.39052,51.991961 C343.343645,53.2575923 343.402238,54.4997674 343.566301,55.7185235 C343.730365,56.9372796 344.011612,58.0153938 344.410051,58.9528985 C344.808491,59.8904032 345.288955,60.6403957 345.851458,61.2028985 C346.41396,61.7654013 347.093641,62.0232112 347.89052,61.976336 C348.687399,61.9294608 349.390517,61.6013391 349.999895,60.991961 C350.609273,60.382583 351.14833,59.6091532 351.617083,58.6716485 C352.085835,57.7341438 352.460831,56.6794669 352.742083,55.507586 C353.023334,54.3357051 353.210832,53.1872791 353.304583,52.0622735 Z M371.023333,19.4372735 C370.929582,21.1247819 370.765521,23.070075 370.531145,25.273211 C370.296769,27.476347 370.050678,29.8435108 369.792864,32.3747735 C369.53505,34.9060362 369.27724,37.5544472 369.019426,40.320086 C368.761613,43.0857248 368.538959,45.8747594 368.351458,48.6872735 C368.163957,51.4997876 368.081926,53.784921 368.105364,55.5427423 C368.128801,57.3005635 368.234269,58.7419554 368.42177,59.866961 C368.609271,60.9919666 368.867081,61.8825827 369.195208,62.538836 C369.523334,63.1950893 369.945205,63.8278955 370.460833,64.4372735 C369.851455,64.8122754 369.28896,65.0935226 368.773333,65.2810235 C368.257705,65.4685244 367.812397,65.609148 367.437395,65.7028985 C366.968643,65.8435242 366.546772,65.913836 366.17177,65.913836 C365.468642,65.913836 364.859273,65.5739957 364.343645,64.8943048 C363.828018,64.2146139 363.417865,63.3357164 363.113176,62.257586 C362.808487,61.1794556 362.574115,59.9724364 362.410051,58.6364923 C362.245988,57.3005481 362.163958,55.9763426 362.163958,54.663836 C362.163958,53.257579 362.210832,51.628689 362.304583,49.7771173 C362.398333,47.9255455 362.503801,45.9568152 362.620989,43.8708673 C362.738177,41.7849193 362.867082,39.6052536 363.007708,37.3318048 C363.148333,35.0583559 363.26552,32.7966598 363.35927,30.5466485 C363.453021,28.8122648 363.54677,27.241968 363.64052,25.835711 C363.734271,24.6169549 363.804582,23.5036848 363.851458,22.4958673 C363.898333,21.4880497 363.874896,20.8903994 363.781145,20.7028985 C364.062396,20.3278966 364.413955,20.0466494 364.835833,19.8591485 C365.25771,19.6716476 365.656143,19.5075867 366.031145,19.366961 C366.499897,19.2263353 366.968643,19.109149 367.437395,19.0153985 L368.773333,19.0153985 C369.148334,19.0153985 369.546768,19.0505544 369.968645,19.1208673 C370.390522,19.1911801 370.742081,19.2966478 371.023333,19.4372735 Z M385.437395,51.6403985 C386.46865,52.0154004 387.453015,52.3669594 388.39052,52.695086 C389.328025,53.0232126 390.148329,53.4216462 390.851458,53.8903985 C391.554586,54.3591508 392.11708,54.9099266 392.538958,55.5427423 C392.960835,56.1755579 393.17177,56.9607063 393.17177,57.898211 C393.17177,59.0232166 392.925679,60.0778936 392.433489,61.0622735 C391.941299,62.0466534 391.226462,62.9138323 390.288958,63.663836 C389.351453,64.4138398 388.214746,65.01149 386.878801,65.4568048 C385.542857,65.9021195 384.054591,66.1247735 382.413958,66.1247735 C380.585823,66.1247735 379.109276,65.948994 377.98427,65.5974298 C376.859264,65.2458655 375.992086,64.8357133 375.382708,64.366961 C374.77333,63.8982087 374.374896,63.4294633 374.187395,62.960711 C373.999894,62.4919587 373.906145,62.1169624 373.906145,61.835711 C373.906145,61.2732082 374.023331,60.6521207 374.257708,59.9724298 C374.492084,59.2927389 374.937392,58.554465 375.593645,57.757586 C375.874896,57.4294594 376.179581,57.1247749 376.507708,56.8435235 C377.163961,56.2810207 377.820204,55.9294617 378.476458,55.788836 C378.382707,56.8669664 378.511612,57.7458639 378.863176,58.4255548 C379.214741,59.1052457 379.683486,59.6325841 380.269426,60.007586 C380.855367,60.3825879 381.51161,60.6403978 382.238176,60.7810235 C382.964742,60.9216492 383.656142,60.991961 384.312395,60.991961 C384.968648,60.991961 385.63661,60.8982119 386.316301,60.710711 C386.995992,60.5232101 387.61708,60.2771188 388.179583,59.9724298 C388.742085,59.6677407 389.199112,59.3161817 389.550676,58.9177423 C389.902241,58.5193028 390.07802,58.0857133 390.07802,57.616961 C390.07802,57.1013334 389.867085,56.6794626 389.445208,56.351336 C389.02333,56.0232094 388.495992,55.7536808 387.863176,55.5427423 C387.230361,55.3318037 386.55068,55.1677428 385.824114,55.0505548 C385.097548,54.9333667 384.406148,54.8044617 383.749895,54.663836 C383.093642,54.5232103 382.214744,54.3239935 381.113176,54.0661798 C380.011608,53.808366 378.933494,53.3982138 377.878801,52.835711 C376.824109,52.2732082 375.910055,51.5232157 375.136614,50.585711 C374.363172,49.6482063 373.976458,48.4060312 373.976458,46.8591485 C373.976458,45.0778896 374.433484,43.5193114 375.347551,42.1833673 C376.261618,40.8474231 377.386607,39.7224343 378.722551,38.8083673 C380.058496,37.8943002 381.47645,37.2029008 382.976458,36.7341485 C384.476465,36.2653962 385.812389,36.0310235 386.98427,36.0310235 C387.593648,36.0310235 388.249892,36.1130539 388.95302,36.2771173 C389.656149,36.4411806 390.312392,36.7224278 390.92177,37.1208673 C391.531148,37.5193067 392.035049,38.0466452 392.433489,38.7028985 C392.831928,39.3591518 393.031145,40.2028933 393.031145,41.2341485 C393.031145,42.2654037 392.949115,43.0974266 392.785051,43.7302423 C392.620988,44.3630579 392.386615,44.8552405 392.081926,45.2068048 C391.777237,45.558369 391.41396,45.781023 390.992083,45.8747735 C390.570205,45.968524 390.078023,46.0153985 389.51552,46.0153985 C389.140518,46.0153985 388.788959,45.968524 388.460833,45.8747735 C388.179581,45.781023 387.874897,45.687274 387.54677,45.5935235 C387.218643,45.499773 386.913959,45.3357122 386.632708,45.101336 C387.10146,44.5388332 387.464738,43.9997761 387.722551,43.4841485 C387.980365,42.9685209 388.10927,42.3357148 388.10927,41.585711 C388.10927,40.9294577 387.933491,40.3435261 387.581926,39.8278985 C387.230362,39.3122709 386.656149,39.054461 385.85927,39.054461 C385.015516,39.054461 384.20693,39.2185219 383.433489,39.5466485 C382.660047,39.8747751 381.980367,40.3200832 381.394426,40.882586 C380.808486,41.4450888 380.339741,42.0896136 379.988176,42.8161798 C379.636612,43.5427459 379.460833,44.3278943 379.460833,45.1716485 C379.460833,46.4372798 379.941297,47.6325804 380.902239,48.757586 C381.863181,49.8825916 383.374885,50.8435195 385.437395,51.6403985 Z M65.9630474,31.519293 L18.9069227,85.7902984 C17.7589841,87.1240515 16.0973026,87.923437 14.324462,87.994784 C12.5516214,88.0661309 10.8293735,87.4029296 9.57497581,86.1658571 L1.86052403,78.5607918 C0.605658262,77.3241808 -0.0670821065,75.6263534 0.00529104266,73.8786507 C0.0776641918,72.1309479 0.88854762,70.4928281 2.24148461,69.3611666 L57.4029895,23 L62.95876,28.4780041 L40,5.23647798 C46.9979303,-1.74549266 58.2371795,-1.74549266 65.2351097,5.23647798 L90,30.3063792 L77.3040752,43 L65.9630474,31.519293 Z M64.1341546,48 L82.8422182,64.2580089 C88.011637,68.877538 88.4158726,76.7668419 83.7451171,81.8795226 C83.6022235,82.0348193 83.4561894,82.1901159 83.3054446,82.3454126 C78.378225,87.2181958 70.3898131,87.2181958 65.4625935,82.3454126 C65.3055677,82.1901159 65.1658146,82.0348193 65.0229211,81.8795226 L49,64.6151912 L64.1341546,48 Z M42,35.1763543 L35.2552327,41 L19.1821306,24.7247924 L12.9340831,24.7247924 L2,13.6532226 L14.496095,1 L25.4301781,12.0715698 L25.4301781,18.3981811 L42,35.1763543 Z" id="Combined-Shape" fill="#363648"></path>
    </g>
</svg>